# xmcd
#
# Track frame offsets:
#	150
#	12718
#	30214
#	39899
#	49543
#	62536
#	75313
#	88452
#	101013
#	113284
#	126720
#	139197
#	150979
#	163830
#	177292
#	190451
#	204742
#	214252
#	226802
#	239256
#
# Disc length: 3347
#
# Revision: 3
# Processed by: cddbd v1.5.1PL0 Copyright (c) Steve Scherf et al.
# Submitted via: CDex 1.50
# Normalized: r2:DSETVAR1
#
DISCID=080d1114
DTITLE=Various Artist - Salsa Klassiker CD1
DYEAR=2002
DGENRE=Salsa
TTITLE0=Perez Prado - Tu No Tines Suerte
TTITLE1=Septeto Nacional De Ignacio Pineiro - Echale Salsita
TTITLE2=Cheo Felicionao con Joe Cuba - Mambo of the Times
TTITLE3=The Mambo Kings - Mambo No 5
TTITLE4=Tito Puente and Mongo Sanatamaria - Preparen Candela
TTITLE5=Beny Moré - Soy Del Monte
TTITLE6=Machito - Christopher Columbus
TTITLE7=Celia Cruz and La Sonora Matancera - Ritmo De Mi Cuba
TTITLE8=Ismael Rivera - Maquino Landera
TTITLE9=La Sonera Matancera - Cualquirea Resbala Y Cae
TTITLE10=Vicentico Valdes - Dulce Con Dulce
TTITLE11=Cécar Concepción - Que Besitos Buenos
TTITLE12=Orquesta Riverside - Ligaste Tarde
TTITLE13=Celio Gonzales and La Sonera Matancera - Humo
TTITLE14=Trio Matamoros - Aprende
TTITLE15=Celeste Mondoza - Sabre Una Tumba, Una Rumba
TTITLE16=Joe Cuba Sextette - Liegue
TTITLE17=Cortijo and Su Combo - Dejalo Que Suba
TTITLE18=Bobby Capo - Lo Que Quiera Lola
TTITLE19=Antonio Machin - El Manisero
EXTD=YEAR: 2002
EXTT0=
EXTT1=
EXTT2=
EXTT3=
EXTT4=
EXTT5=
EXTT6=
EXTT7=
EXTT8=
EXTT9=
EXTT10=
EXTT11=
EXTT12=
EXTT13=
EXTT14=
EXTT15=
EXTT16=
EXTT17=
EXTT18=
EXTT19=
PLAYORDER=
